HIERARCHY
ROOT Hips
{
    OFFSET 11.506372451782227 91.02335739135742 -18.213815689086914
    CHANNELS 6 Xposition Yposition Zposition Zrotation Xrotation Yrotation
    JOINT RightUpLeg
    {
        OFFSET -11.506372451782227 0.0 0.0
        CHANNELS 3 Zrotation Xrotation Yrotation
        JOINT RightLeg
        {
            OFFSET 0.0 -45.48881912231445 0.0
            CHANNELS 3 Zrotation Xrotation Yrotation
            JOINT RightFoot
            {
                OFFSET 0.0 -45.53453826904297 0.0
                CHANNELS 3 Zrotation Xrotation Yrotation
                End Site
                {
                    OFFSET 0.0 0.0 18.213815689086914
                }
            }
        }
    }
    JOINT LeftUpLeg
    {
        OFFSET 11.506372451782227 0.0 0.0
        CHANNELS 3 Zrotation Xrotation Yrotation
        JOINT LeftLeg
        {
            OFFSET 0.0 -45.48881912231445 0.0
            CHANNELS 3 Zrotation Xrotation Yrotation
            JOINT LeftFoot
            {
                OFFSET 0.0 -45.53453826904297 0.0
                CHANNELS 3 Zrotation Xrotation Yrotation
                End Site
                {
                    OFFSET 0.0 0.0 18.213815689086914
                }
            }
        }
    }
    JOINT Spine
    {
        OFFSET 0.0 23.51874542236328 0.0
        CHANNELS 3 Zrotation Xrotation Yrotation
        JOINT Spine3
        {
            OFFSET 0.0 25.246265411376953 0.0
            CHANNELS 3 Zrotation Xrotation Yrotation
            JOINT Neck
            {
                OFFSET 0.0 11.309535026550293 0.0
                CHANNELS 3 Zrotation Xrotation Yrotation
                End Site
                {
                    OFFSET 0.0 4.523813724517822 0.0
                }
            }
            JOINT LeftArm
            {
                OFFSET 13.077309608459473 0.0 0.0
                CHANNELS 3 Zrotation Xrotation Yrotation
                JOINT LeftForeArm
                {
                    OFFSET 28.48154067993164 0.0 0.0
                    CHANNELS 3 Zrotation Xrotation Yrotation
                    JOINT LeftHand
                    {
                        OFFSET 17.095088958740234 0.0 0.0
                        CHANNELS 3 Zrotation Xrotation Yrotation
                        End Site
                        {
                            OFFSET 6.838036060333252 0.0 0.0
                        }
                    }
                }
            }
            JOINT RightArm
            {
                OFFSET -13.077309608459473 0.0 0.0
                CHANNELS 3 Zrotation Xrotation Yrotation
                JOINT RightForeArm
                {
                    OFFSET -28.48154067993164 0.0 0.0
                    CHANNELS 3 Zrotation Xrotation Yrotation
                    JOINT RightHand
                    {
                        OFFSET -17.095088958740234 0.0 0.0
                        CHANNELS 3 Zrotation Xrotation Yrotation
                        End Site
                        {
                            OFFSET -6.838036060333252 0.0 0.0
                        }
                    }
                }
            }
        }
    }
}
MOTION
Frames: 11
Frame Time: 0.03333333333333333
2.5822919269558042e-05 87.87294006347656 -0.0011643478646874428 -4.033871819193966 -8.1962423102026 -24.17562388597082 1.703173317536752 19.204720730987958 -0.9083317645111989 0.4329007070938879 10.245437711125934 -0.539612832692928 7.951386703658792e-16 -2.758691436281349e-33 -3.975693351829396e-16 4.316542139733859 18.55361114342204 -1.722088363400534 -1.038987799334752 12.176184134467753 -0.8630518765181061 7.951386703658792e-16 6.896728590703373e-33 9.93923337957349e-16 1.0926550848933934 22.94012616830127 -0.842825299905938 -2.774128569999546e-07 1.1993733164948274e-06 -0.4860792565540376 2.362118966305333 8.771170719451371 179.97770850243523 114.4985406054491 -26.880990874210895 -174.57224807880763 -1.8979995832408407e-07 -6.568643725084793e-06 25.764499168689785 7.951386703658792e-15 3.1805546814635176e-15 6.3611093629270335e-15 -117.90488035986155 -35.426350411671336 171.75761920176757 2.770091939935635e-06 9.873261517076733e-07 -35.5915873534912 -7.528969285026917e-15 -3.1805546814635164e-15 -2.089708762983122e-31
-3.45767148246523e-06 87.87298583984375 -0.0011840355582535267 -4.110326908068712 -8.377243274018728 -23.855574471045834 2.1220108821351484 19.412374450617946 -0.9911077368678333 0.02252692814938127 10.274735346760979 -0.504246679142819 7.951386703658792e-16 2.758691436281349e-33 3.975693351829396e-16 4.745475706340532 18.630541409111167 -1.803082356297658 -1.314731529821601 12.340623643686198 -0.8616741960823316 0.0 0.0 5.963540027744094e-16 1.0328799593822613 23.06666487224181 -0.74582456240349 6.355105837309113e-08 -5.561277504534782e-07 -0.3887302273779622 2.576243343187382 8.714390336888766 179.92071982040835 114.93109132808362 -26.348680245740997 -174.56480183570363 5.84716556812832e-07 -5.6301644368873145e-06 26.188231987430107 1.1131941385122309e-14 6.179468817270222e-31 6.3611093629270335e-15 -117.5907764921405 -34.650358412384925 172.08903053413465 -1.7282010015453955e-07 -5.661451344419453e-06 -36.777723780916844 2.9693459721475803e-15 0.0 0.0
-6.870732249808498e-06 87.87303924560547 -0.0011915348004549742 -4.171822332281339 -8.566125657794966 -23.65524420645305 2.3805179423291234 19.667031229174597 -1.0433212692951181 -0.4133556392663745 10.31497349304275 -0.44703149157763583 -1.7241821476758432e-33 1.987846675914698e-16 9.93923337957349e-16 5.012145731287096 18.76461366421457 -1.856437094633458 -1.4506458808385227 12.321916148101268 -0.8559531214180316 -1.5902773407317588e-15 2.758691436281349e-33 -1.9878466759146985e-16 0.950737961860207 23.10917213149091 -0.6595687755254962 2.7713979382492104e-07 2.071599166287185e-07 -0.2897865244885489 2.426720134031764 8.657044604879363 179.47798641188544 114.9068959051094 -24.625884760790964 -174.945884083528 1.975089874858032e-07 -2.2586705253457468e-06 26.44892205624104 1.590277340731758e-15 0.0 0.0 -117.74652415699414 -34.78722766945872 172.2364588577461 3.185171812386383e-06 7.814226845692941e-07 -37.597491908578384 -9.293183209901211e-15 -3.1805546814635164e-15 -2.5793764929230614e-31
3.4380718716420233e-06 87.8730697631836 -0.001192671712487936 -4.098579931549869 -8.653773651816836 -23.52589083921115 2.341179177053614 19.858615499214757 -1.063774369979326 -0.3781164220439453 10.277485304948486 -0.4563397901640284 -7.951386703658792e-16 -1.1034765745125397e-32 1.5902773407317584e-15 4.979779367039875 18.697674909555165 -1.8624007787770551 -1.3974070936280507 12.373866250340376 -0.8792801740354149 0.0 0.0 1.5902773407317582e-15 0.7450210018883058 23.029649890261666 -0.6045710865078208 1.8100963992251369e-07 -1.7087897700426375e-06 0.09247870699394482 2.459449411225569 8.704759026174292 179.43901815753338 114.22285764521675 -21.741172160402638 -175.58829746378507 1.6008863048195502e-06 -9.002560775026581e-06 26.378150748617234 4.770832022195277e-15 3.1805546814635176e-15 -1.3241718894150476e-31 -117.69161321054064 -34.13306043469682 172.5533015013996 -1.2390327897984112e-07 -1.2098115463132997e-06 -38.370849178811426 2.484808344893373e-17 6.896728590703373e-34 3.1805546814635176e-15
1.727289600239601e-05 87.873046875 -0.0011845979606732726 -4.167351697507831 -8.69649609981426 -23.325059789190107 2.3965443639826014 19.876691867154232 -1.027492075613947 -0.14920377614216582 10.398179378882046 -0.48437634269663543 0.0 0.0 1.1927080055488188e-15 5.057511285453071 18.742605644569014 -1.8383334113861045 -1.3553297400471267 12.623835581356872 -0.8875226939564735 -1.3793457181406746e-33 1.987846675914698e-16 7.951386703658792e-16 0.7574864287253338 22.88946705990122 -0.5417628221118223 -1.5420006089493454e-07 5.070488762669419e-07 0.15816646370021614 2.459983679309847 9.480284682606433 179.180588550951 113.76506634131064 -19.32783206441702 -175.7575790676528 1.1218538299401936e-06 5.300137047432069e-07 26.73363550690772 4.770832022195275e-15 6.3611093629270335e-15 6.3611093629270335e-15 -118.13428341859068 -34.169997457307595 172.54421679639327 -3.4198165051637493e-08 -2.45858501885281e-06 -38.83537864297727 3.056314264218848e-15 0.0 0.0
2.8617614589165896e-05 87.87301635742188 -0.0011794425081461668 -4.1743047632902925 -8.759423047557489 -23.280617152017882 2.2771130072604784 19.873003165183313 -0.9695784701235295 0.046045218272847334 10.532549886760412 -0.4971387265138516 0.0 0.0 -9.93923337957349e-16 4.861885385365057 18.843997073445276 -1.7677120473939165 -1.0957996541496662 12.790264964522612 -0.9042431545894305 1.2896882464615307e-31 -3.3793393490549868e-15 4.373262687012335e-15 0.6914498265472926 22.864139931574446 -0.4959713071165155 -1.198191185742269e-07 1.0293614530353823e-06 0.28387416202212173 2.3316227406348555 9.909584593549832 179.30336769828918 113.46146144676497 -17.7623840461764 -176.11459020884416 6.9400764164443245e-06 3.802467733923235e-06 27.375961478286285 3.1805546814635164e-15 -6.361109362927032e-15 6.361109362927032e-15 -118.16310805532935 -33.466379737145644 172.76766410709794 -2.3660995054826338e-06 2.158032519691643e-06 -39.147861303306314 -1.2921003393445538e-15 -3.1805546814635168e-15 3.1805546814635168e-15
4.191388143226504e-05 87.87303161621094 -0.0011804532259702682 -3.9690713427809965 -8.860256246069204 -23.10166607640233 1.9250163364743293 19.851470262253265 -0.8750155754090702 0.5989110727238601 10.654146799123676 -0.5574827055647555 -7.951386703658791e-16 1.9878466759146975e-16 3.1805546814635164e-15 4.474914423554197 18.889266868018154 -1.6709920176968518 -0.9380071622715075 12.698279777606546 -0.8677710129912191 -1.5902773407317582e-15 -3.379339349054986e-15 -7.951386703658792e-16 0.5049163874556611 22.827513535184295 -0.4529167301876492 3.835276076904783e-08 1.1919344212399035e-06 0.5832549237176378 1.8515348353927985 9.761557825444637 179.17029802502284 113.62719096815626 -17.477292734084823 -176.25773683390588 4.773330166170268e-06 -2.577944108344431e-06 28.914442701074353 6.3611093629270335e-15 0.0 0.0 -119.08464960696406 -33.641771768714975 172.5759107162005 -1.4127506269882936e-06 -3.6556772871706266e-06 -40.837914948245114 -4.721135855297408e-15 1.3103784322336408e-31 -3.1805546814635168e-15
5.3691612265538424e-05 87.87308502197266 -0.0012045224430039525 -3.893468094911579 -8.80319165080602 -23.084249130076532 1.9893331280602446 19.73553143697936 -0.8666336141457058 0.5446199055479688 10.663754332710473 -0.5464962858126123 -7.241565020238542e-33 1.987846675914698e-16 4.174478019420866e-15 4.256214760125719 18.767478999578536 -1.5660010564060374 -0.7651793455403948 12.796386142468563 -0.852032758085446 -7.951386703658792e-16 -3.3793393490549868e-15 -1.3914926731402886e-15 0.2370974580358884 22.80757746805433 -0.3200098017760344 1.9152930696193621e-07 -5.584163595487958e-08 0.9660777772233434 1.7464516975278674 9.580142267588613 179.1993898035039 114.24082435972639 -18.125876066180552 -176.61067399890393 3.6419484638240626e-06 -4.4129790951542955e-07 31.047858315724298 -6.3611093629270335e-15 -3.1805546814635168e-15 -1.7655625192200634e-31 -120.37369761764789 -34.01465996014383 172.5844562439057 -1.3351109127333104e-06 -2.5873746109625636e-06 -44.33916501489722 -9.939233379573487e-17 2.758691436281349e-33 -3.180554681463516e-15
6.90064553054981e-05 87.8730697631836 -0.0012131971307098866 -3.817144192755711 -8.857584132976978 -22.858737033445944 2.19110998333562 19.97347061270787 -0.9635063781261375 0.3597838193906354 10.511298640076118 -0.5480204768950919 -7.951386703658794e-16 8.276074308844047e-33 -1.1927080055488192e-15 4.459557206791917 18.673827649075672 -1.6410999558787407 -0.8964640775862237 13.036227707149154 -0.8934614382265252 -7.951386703658791e-16 -3.379339349054986e-15 1.3914926731402884e-15 0.11711595113852168 22.47228665470764 -0.28977161069673935 -2.226578808944233e-07 5.007123470811189e-07 1.12643787890076 1.7270958518851804 9.938533061036146 179.51442069464125 115.09415722172905 -19.507432978438658 -176.92527534862745 3.4735052552007527e-06 -3.7009647664626825e-06 34.24716329638824 1.5902773407317584e-15 -8.827812596100317e-32 -6.3611093629270335e-15 -121.52249812328193 -33.65411626323545 173.05601457199433 -1.3472100540160653e-06 -1.984741251086261e-06 -48.63084918465242 8.34895603884173e-15 -3.1805546814635156e-15 3.1805546814635164e-15
5.913316272199154e-05 87.87307739257812 -0.0012514869449660182 -3.9804423125911716 -8.800815157182706 -22.821464064306593 2.6218428036390313 19.811902347541047 -1.030618777259278 -0.23002273578370833 10.96179060066386 -0.49881564213254465 -7.951386703658792e-16 8.276074308844047e-33 -1.1927080055488188e-15 4.92154457357364 18.627171745978835 -1.7183887733654908 -1.0334133249081416 13.087580598494473 -0.9202857610890687 1.5902773407317588e-15 1.9878466759146985e-16 -5.963540027744096e-16 0.17954195704333184 22.10938418705139 -0.22962394071289538 -3.244841631161548e-07 4.3973011190651844e-07 1.0514617615454145 1.380290980794682 10.374667674952253 179.12014118468582 116.69644473100803 -23.075320178438115 -176.6482291032816 2.1574094684086484e-06 1.9136397666175135e-06 39.03672320375919 -3.1805546814635168e-15 0.0 0.0 -123.01815099143663 -32.35501489509981 173.40808871327368 -1.6726908459019974e-06 3.168265120646275e-07 -55.1186908120666 2.782985346280577e-15 1.5448672043175555e-31 6.3611093629270335e-15
7.078633643686771e-05 87.87306213378906 -0.0012477186974138021 -3.736026652067016 -8.871173711999297 -21.91411118741584 2.844331590274174 19.88710291540988 -1.110936482313415 -0.22554165769497958 10.73752265220282 -0.5288754619584511 1.5902773407317584e-15 2.758691436281349e-33 1.987846675914698e-16 5.442103247387387 18.25658545903952 -1.8510863916565192 -1.3282334118022705 12.88454830996157 -0.9540206048387408 0.0 0.0 -9.93923337957349e-16 0.001747557549340935 21.596787869187985 -0.16018710087511867 -5.1469013790063195e-08 -3.0831276541148856e-07 1.086444629009689 0.8761506008130329 10.454939416837352 179.29330140570644 118.16818694951783 -17.51022116806468 -176.89233191169157 5.714554811502578e-07 2.113931611426791e-06 47.04604172213371 0.0 0.0 0.0 -123.52923848593875 -27.0439433396774 174.40347015040612 -3.295097429728539e-07 -1.771924287154848e-06 -64.53816889439612 5.5659706925611536e-15 0.0 0.0
